<svg width="19" height="19" viewBox="0 0 19 19" fill="none" xmlns="http://www.w3.org/2000/svg">
<path d="M15.5526 0.786133C15.3485 1.29676 14.8994 1.76508 14.5654 1.9317L13.4559 1.41328C13.2518 1.96695 13.3334 2.31764 13.5858 2.63641C13.2369 2.81713 12.825 2.82826 12.3723 2.72064C12.3166 3.30549 12.7768 3.81129 13.3446 3.81129C13.5672 3.52109 13.9086 3.1923 14.3539 2.96705C14.8994 2.6917 15.6342 2.62379 16.343 3.06947C17.2373 3.01158 17.5082 2.05008 17.5082 1.43035C16.7549 1.73057 16.5471 1.99479 15.7901 2.0883C16.1797 1.70904 15.8903 1.10268 15.5526 0.786133ZM2.55166 3.31031C3.54582 3.91891 4.50881 4.33824 4.72775 5.16949C3.4241 4.75016 2.27408 5.45523 1.49219 6.69098C2.51529 6.34586 3.16248 6.10836 4.26018 6.21227C3.26527 6.64644 2.24402 7.14371 2.31268 7.96012C3.01961 7.55191 3.18475 7.30328 4.2676 7.30699C3.22074 7.93414 2.64629 8.34976 2.87303 9.77477C3.22742 9.1773 4.10061 8.60211 4.73889 8.4982C3.81857 9.61148 3.6527 10.3017 4.04123 11.4261C4.3715 10.9214 4.7092 10.0494 5.38088 9.67457C5.03947 10.4168 5.17678 11.5152 5.49963 12.0347C5.84846 11.389 6.10822 10.7062 6.79846 10.1718C7.55549 11.4002 8.12326 12.6693 9.97873 13.6824C10.2682 13.9941 10.4389 14.3652 10.4686 14.8847H12.5059L13.1553 13.6898C15.0887 12.9476 16.176 11.7935 16.7363 10.4427C16.4283 10.2757 16.2391 9.98258 16.1092 9.70426C15.6156 10.1941 15.3373 10.6617 15.0071 11.2406C14.6842 10.7767 14.4319 10.2164 14.3725 9.70797C13.9383 10.0679 13.6785 10.4353 13.3557 10.8843C13.1071 10.35 12.9029 9.72652 12.8955 9.21812C12.1904 9.45934 11.9901 9.76363 11.5225 10.3017C11.2887 9.51129 11.0512 8.55016 11.2776 7.97867C8.46096 8.11969 8.79123 4.54977 7.626 3.59754C7.64826 4.13414 7.3217 5.08785 7.13986 5.15836C6.39768 3.43129 3.83713 3.31068 2.55166 3.31031ZM15.2817 3.35744C15.0516 3.35744 14.8438 3.42721 14.636 3.53C14.2166 3.77418 13.8715 4.11559 13.6266 4.5275C13.5598 5.08043 13.6488 5.62965 13.6303 6.17887C13.608 6.93961 13.0069 7.73746 12.3352 7.86363C12.2572 7.87476 12.183 7.88961 12.1088 7.90074C11.708 8.19762 11.8045 8.62809 11.8973 9.01031C12.4651 8.6318 12.9883 8.55016 13.6154 8.44625C13.5375 8.82848 13.5115 9.25152 13.5709 9.60035C14.0422 9.12535 14.4615 8.84332 14.9959 8.45738C14.9699 8.95465 14.9514 9.52242 15.0627 9.95289C15.4783 9.39625 15.8383 9.08824 16.3653 8.70973C16.5285 9.04742 16.7363 9.66715 16.9516 9.84156C17.0481 9.52613 17.1149 9.19957 17.1668 8.8693C17.2373 8.35348 17.0221 7.86734 16.7809 7.37379C16.3022 7.35894 15.8309 7.09176 15.4783 6.71324C15.0256 6.23453 14.7621 5.48492 15.0998 4.765L15.1852 4.57945C15.5897 4.59059 16.0313 4.60543 16.3764 4.70934C16.8403 4.77242 17.2819 5.15465 17.4637 5.08785C17.3449 4.60172 16.9998 3.80387 16.1797 3.93375C16.2205 3.56117 15.5377 3.36635 15.2817 3.35744ZM15.2186 3.62166C15.3707 3.62166 15.4932 3.74078 15.4932 3.88922C15.4932 4.03766 15.3707 4.15641 15.2186 4.15641C15.0664 4.15641 14.9403 4.03766 14.9403 3.88922C14.9403 3.74078 15.0664 3.6198 15.2186 3.62166ZM15.6045 5.22887C15.5043 5.61852 15.6602 5.98961 15.9348 6.28277C16.1797 6.54254 16.51 6.69469 16.7697 6.7318C16.7623 6.11578 16.6992 5.73355 16.5656 5.54801C16.317 5.26598 15.9274 5.24742 15.6045 5.22887ZM10.617 15.5193L10.7395 16.2021C10.3572 16.2912 9.95275 16.3394 9.40725 16.2689L9.32561 16.8923C9.81174 16.9591 10.2237 16.9369 10.591 16.8775L9.9008 17.564L9.9342 18.2023L10.9547 17.397L11.0883 18.2134L11.7117 18.1058L11.5002 16.8181L12.0049 16.7884L12.3203 18.1689L12.9363 18.0316L12.799 17.4341C13.467 17.7533 14.1498 17.8201 14.7213 17.9054L14.161 17.2412C13.4076 17.1261 13.3037 17.0964 12.6395 16.5992L12.4354 15.5193H11.7971L11.9158 16.1613L11.3815 16.191L11.259 15.5193H10.617Z" fill="#FFD700"/>
</svg>
